<svg width="329" height="82" viewBox="0 0 329 82" fill="none" xmlns="http://www.w3.org/2000/svg">
<g filter="url(#filter0_d_324_3)">
<mask id="path-1-outside-1_324_3" maskUnits="userSpaceOnUse" x="3.62646" y="-0.162502" width="321" height="74" fill="black">
<rect fill="white" x="3.62646" y="-0.162502" width="321" height="74"/>
<path d="M12.6265 11.7105H32.1273C36.1256 11.7105 39.5613 12.3091 42.4343 13.5062C45.3313 14.7033 47.5579 16.475 49.1142 18.8213C50.6704 21.1677 51.4485 24.0527 51.4485 27.4764C51.4485 30.2776 50.9697 32.6838 50.012 34.6949C49.0782 36.6821 47.7495 38.3461 46.0256 39.6868C44.3257 41.0037 42.3266 42.0571 40.0282 42.8472L36.6164 44.6428H19.6654L19.5936 36.2392H32.1991C34.0905 36.2392 35.6587 35.904 36.9037 35.2336C38.1487 34.5632 39.0824 33.6295 39.7049 32.4324C40.3514 31.2353 40.6746 29.8467 40.6746 28.2665C40.6746 26.5905 40.3633 25.142 39.7408 23.921C39.1184 22.6999 38.1726 21.7662 36.9037 21.1198C35.6348 20.4733 34.0426 20.1501 32.1273 20.1501H23.4004V64H12.6265V11.7105ZM41.8597 64L29.9366 40.6924L41.321 40.6206L53.3878 63.4972V64H41.8597Z"/>
<path d="M76.9827 64.7183C73.966 64.7183 71.2606 64.2394 68.8664 63.2817C66.4722 62.3001 64.4371 60.9474 62.7611 59.2236C61.1091 57.4997 59.8402 55.5006 58.9543 53.2261C58.0685 50.9276 57.6256 48.4855 57.6256 45.8998V44.4633C57.6256 41.5184 58.0445 38.8249 58.8825 36.3828C59.7205 33.9407 60.9176 31.8219 62.4738 30.0262C64.054 28.2306 65.9694 26.8539 68.2199 25.8962C70.4705 24.9146 73.0083 24.4238 75.8335 24.4238C78.5868 24.4238 81.0289 24.8787 83.1598 25.7885C85.2906 26.6983 87.0743 27.9911 88.5108 29.6671C89.9713 31.343 91.0726 33.3542 91.8148 35.7005C92.557 38.0229 92.9281 40.6086 92.9281 43.4577V47.7673H62.0429V40.872H82.7647V40.0819C82.7647 38.6454 82.5014 37.3645 81.9746 36.2392C81.4718 35.09 80.7057 34.1802 79.6762 33.5098C78.6467 32.8394 77.3299 32.5042 75.7258 32.5042C74.3611 32.5042 73.1879 32.8035 72.2063 33.4021C71.2246 34.0006 70.4226 34.8386 69.8001 35.916C69.2015 36.9934 68.7466 38.2623 68.4354 39.7228C68.1481 41.1593 68.0044 42.7395 68.0044 44.4633V45.8998C68.0044 47.456 68.2199 48.8926 68.6509 50.2094C69.1058 51.5262 69.7402 52.6634 70.5543 53.6211C71.3922 54.5788 72.3978 55.321 73.571 55.8477C74.7681 56.3745 76.1208 56.6378 77.6292 56.6378C79.4966 56.6378 81.2324 56.2787 82.8365 55.5604C84.4646 54.8182 85.8652 53.7049 87.0384 52.2205L92.0662 57.6793C91.2522 58.8525 90.1389 59.9777 88.7263 61.0551C87.3377 62.1325 85.6617 63.0184 83.6985 63.7127C81.7352 64.3831 79.4966 64.7183 76.9827 64.7183Z"/>
<path d="M121.766 55.5245V8.8375H132.181V64H122.808L121.766 55.5245ZM97.2018 45.0379V44.2837C97.2018 41.3149 97.537 38.6214 98.2074 36.2033C98.8777 33.7612 99.8594 31.6663 101.152 29.9185C102.445 28.1707 104.037 26.818 105.929 25.8603C107.82 24.9026 109.975 24.4238 112.393 24.4238C114.668 24.4238 116.655 24.9026 118.355 25.8603C120.078 26.818 121.539 28.1827 122.736 29.9544C123.957 31.7022 124.939 33.7732 125.681 36.1674C126.423 38.5376 126.962 41.1353 127.297 43.9605V45.6125C126.962 48.318 126.423 50.8319 125.681 53.1542C124.939 55.4766 123.957 57.5117 122.736 59.2595C121.539 60.9833 120.078 62.3241 118.355 63.2817C116.631 64.2394 114.62 64.7183 112.321 64.7183C109.903 64.7183 107.748 64.2275 105.857 63.2458C103.989 62.2642 102.409 60.8875 101.116 59.1158C99.8474 57.3441 98.8777 55.2611 98.2074 52.8669C97.537 50.4727 97.2018 47.8631 97.2018 45.0379ZM107.545 44.2837V45.0379C107.545 46.642 107.664 48.1384 107.904 49.527C108.167 50.9157 108.586 52.1487 109.161 53.2261C109.759 54.2795 110.526 55.1055 111.459 55.7041C112.417 56.2787 113.578 56.566 114.943 56.566C116.715 56.566 118.175 56.1709 119.324 55.3809C120.473 54.5668 121.347 53.4535 121.946 52.0409C122.568 50.6284 122.928 49.0003 123.023 47.1568V42.4521C122.951 40.9438 122.736 39.5911 122.377 38.394C122.042 37.1729 121.539 36.1314 120.869 35.2695C120.222 34.4076 119.408 33.7372 118.426 33.2584C117.469 32.7796 116.331 32.5401 115.015 32.5401C113.674 32.5401 112.525 32.8514 111.567 33.4739C110.609 34.0724 109.831 34.8984 109.233 35.9519C108.658 37.0053 108.227 38.2503 107.94 39.6868C107.676 41.0994 107.545 42.6317 107.545 44.2837Z"/>
<path d="M161.235 55.2372V37.9271C161.235 36.6821 161.031 35.6167 160.624 34.7308C160.217 33.821 159.583 33.1147 158.721 32.612C157.883 32.1092 156.794 31.8578 155.453 31.8578C154.304 31.8578 153.31 32.0613 152.472 32.4683C151.634 32.8514 150.988 33.414 150.533 34.1562C150.078 34.8745 149.85 35.7244 149.85 36.7061H139.507C139.507 35.0541 139.89 33.4858 140.657 32.0014C141.423 30.517 142.536 29.2122 143.997 28.0869C145.457 26.9377 147.193 26.0399 149.204 25.3934C151.239 24.747 153.514 24.4238 156.027 24.4238C159.044 24.4238 161.726 24.9266 164.072 25.9321C166.418 26.9377 168.262 28.446 169.603 30.4572C170.967 32.4683 171.65 34.9822 171.65 37.9989V54.6267C171.65 56.7575 171.781 58.5053 172.045 59.87C172.308 61.2108 172.691 62.3839 173.194 63.3895V64H162.743C162.24 62.9465 161.857 61.6297 161.594 60.0496C161.355 58.4454 161.235 56.8413 161.235 55.2372ZM162.6 40.3333L162.671 46.1871H156.889C155.525 46.1871 154.34 46.3427 153.334 46.654C152.328 46.9652 151.502 47.4082 150.856 47.9828C150.21 48.5334 149.731 49.1799 149.419 49.9221C149.132 50.6643 148.988 51.4783 148.988 52.3642C148.988 53.25 149.192 54.0521 149.599 54.7703C150.006 55.4647 150.593 56.0153 151.359 56.4223C152.125 56.8054 153.023 56.9969 154.052 56.9969C155.608 56.9969 156.961 56.6857 158.11 56.0632C159.26 55.4407 160.145 54.6746 160.768 53.7648C161.414 52.855 161.75 51.9931 161.774 51.179L164.503 55.5604C164.12 56.542 163.593 57.5596 162.923 58.613C162.276 59.6665 161.45 60.6601 160.445 61.5938C159.439 62.5036 158.23 63.2578 156.818 63.8563C155.405 64.431 153.729 64.7183 151.79 64.7183C149.324 64.7183 147.085 64.2275 145.074 63.2458C143.087 62.2403 141.507 60.8636 140.333 59.1158C139.184 57.3441 138.61 55.333 138.61 53.0824C138.61 51.0473 138.993 49.2397 139.759 47.6595C140.525 46.0794 141.65 44.7506 143.135 43.6732C144.643 42.5719 146.522 41.7459 148.773 41.1952C151.024 40.6206 153.633 40.3333 156.602 40.3333H162.6Z"/>
<path d="M195.675 56.6378C196.944 56.6378 198.07 56.3984 199.051 55.9196C200.033 55.4168 200.799 54.7225 201.35 53.8366C201.924 52.9268 202.224 51.8614 202.248 50.6403H211.98C211.956 53.3697 211.226 55.7998 209.789 57.9307C208.353 60.0376 206.425 61.7016 204.007 62.9226C201.589 64.1197 198.884 64.7183 195.891 64.7183C192.874 64.7183 190.241 64.2155 187.99 63.2099C185.763 62.2043 183.908 60.8157 182.424 59.044C180.939 57.2483 179.826 55.1654 179.084 52.7951C178.341 50.4009 177.97 47.8391 177.97 45.1097V44.0682C177.97 41.3149 178.341 38.7531 179.084 36.3828C179.826 33.9886 180.939 31.9057 182.424 30.134C183.908 28.3383 185.763 26.9377 187.99 25.9321C190.217 24.9266 192.826 24.4238 195.819 24.4238C199.003 24.4238 201.793 25.0343 204.187 26.2553C206.605 27.4764 208.496 29.2242 209.861 31.4987C211.25 33.7492 211.956 36.4187 211.98 39.5073H202.248C202.224 38.2144 201.948 37.0412 201.422 35.9878C200.919 34.9343 200.177 34.0964 199.195 33.4739C198.237 32.8274 197.052 32.5042 195.64 32.5042C194.131 32.5042 192.898 32.8274 191.941 33.4739C190.983 34.0964 190.241 34.9583 189.714 36.0596C189.187 37.137 188.816 38.37 188.601 39.7587C188.409 41.1234 188.313 42.5599 188.313 44.0682V45.1097C188.313 46.6181 188.409 48.0666 188.601 49.4552C188.792 50.8438 189.151 52.0769 189.678 53.1542C190.229 54.2316 190.983 55.0816 191.941 55.7041C192.898 56.3266 194.143 56.6378 195.675 56.6378Z"/>
<path d="M237.011 25.142V32.4683H214.386V25.142H237.011ZM219.989 15.5532H230.332V52.2923C230.332 53.4176 230.475 54.2795 230.763 54.8781C231.074 55.4766 231.529 55.8956 232.127 56.135C232.726 56.3505 233.48 56.4583 234.39 56.4583C235.036 56.4583 235.611 56.4343 236.114 56.3864C236.64 56.3146 237.083 56.2428 237.442 56.1709L237.478 63.7845C236.592 64.0718 235.635 64.2993 234.605 64.4669C233.576 64.6345 232.438 64.7183 231.194 64.7183C228.919 64.7183 226.932 64.3472 225.232 63.605C223.556 62.8388 222.263 61.6178 221.353 59.9418C220.444 58.2659 219.989 56.0632 219.989 53.3338V15.5532Z"/>
<path d="M260.786 64.7183C257.769 64.7183 255.064 64.2394 252.67 63.2817C250.275 62.3001 248.24 60.9474 246.564 59.2236C244.912 57.4997 243.643 55.5006 242.758 53.2261C241.872 50.9276 241.429 48.4855 241.429 45.8998V44.4633C241.429 41.5184 241.848 38.8249 242.686 36.3828C243.524 33.9407 244.721 31.8219 246.277 30.0262C247.857 28.2306 249.773 26.8539 252.023 25.8962C254.274 24.9146 256.812 24.4238 259.637 24.4238C262.39 24.4238 264.832 24.8787 266.963 25.7885C269.094 26.6983 270.877 27.9911 272.314 29.6671C273.774 31.343 274.876 33.3542 275.618 35.7005C276.36 38.0229 276.731 40.6086 276.731 43.4577V47.7673H245.846V40.872H266.568V40.0819C266.568 38.6454 266.305 37.3645 265.778 36.2392C265.275 35.09 264.509 34.1802 263.479 33.5098C262.45 32.8394 261.133 32.5042 259.529 32.5042C258.164 32.5042 256.991 32.8035 256.009 33.4021C255.028 34.0006 254.226 34.8386 253.603 35.916C253.005 36.9934 252.55 38.2623 252.239 39.7228C251.951 41.1593 251.808 42.7395 251.808 44.4633V45.8998C251.808 47.456 252.023 48.8926 252.454 50.2094C252.909 51.5262 253.543 52.6634 254.357 53.6211C255.195 54.5788 256.201 55.321 257.374 55.8477C258.571 56.3745 259.924 56.6378 261.432 56.6378C263.3 56.6378 265.036 56.2787 266.64 55.5604C268.268 54.8182 269.668 53.7049 270.842 52.2205L275.869 57.6793C275.055 58.8525 273.942 59.9777 272.529 61.0551C271.141 62.1325 269.465 63.0184 267.502 63.7127C265.538 64.3831 263.3 64.7183 260.786 64.7183Z"/>
<path d="M305.57 55.5245V8.8375H315.984V64H306.611L305.57 55.5245ZM281.005 45.0379V44.2837C281.005 41.3149 281.34 38.6214 282.011 36.2033C282.681 33.7612 283.663 31.6663 284.955 29.9185C286.248 28.1707 287.84 26.818 289.732 25.8603C291.623 24.9026 293.778 24.4238 296.196 24.4238C298.471 24.4238 300.458 24.9026 302.158 25.8603C303.882 26.818 305.342 28.1827 306.539 29.9544C307.76 31.7022 308.742 33.7732 309.484 36.1674C310.226 38.5376 310.765 41.1353 311.1 43.9605V45.6125C310.765 48.318 310.226 50.8319 309.484 53.1542C308.742 55.4766 307.76 57.5117 306.539 59.2595C305.342 60.9833 303.882 62.3241 302.158 63.2817C300.434 64.2394 298.423 64.7183 296.124 64.7183C293.706 64.7183 291.551 64.2275 289.66 63.2458C287.793 62.2642 286.212 60.8875 284.919 59.1158C283.651 57.3441 282.681 55.2611 282.011 52.8669C281.34 50.4727 281.005 47.8631 281.005 45.0379ZM291.348 44.2837V45.0379C291.348 46.642 291.468 48.1384 291.707 49.527C291.97 50.9157 292.389 52.1487 292.964 53.2261C293.563 54.2795 294.329 55.1055 295.262 55.7041C296.22 56.2787 297.381 56.566 298.746 56.566C300.518 56.566 301.978 56.1709 303.127 55.3809C304.277 54.5668 305.151 53.4535 305.749 52.0409C306.372 50.6284 306.731 49.0003 306.826 47.1568V42.4521C306.755 40.9438 306.539 39.5911 306.18 38.394C305.845 37.1729 305.342 36.1314 304.672 35.2695C304.025 34.4076 303.211 33.7372 302.23 33.2584C301.272 32.7796 300.135 32.5401 298.818 32.5401C297.477 32.5401 296.328 32.8514 295.37 33.4739C294.413 34.0724 293.634 34.8984 293.036 35.9519C292.461 37.0053 292.03 38.2503 291.743 39.6868C291.48 41.0994 291.348 42.6317 291.348 44.2837Z"/>
</mask>
<path d="M12.6265 11.7105H32.1273C36.1256 11.7105 39.5613 12.3091 42.4343 13.5062C45.3313 14.7033 47.5579 16.475 49.1142 18.8213C50.6704 21.1677 51.4485 24.0527 51.4485 27.4764C51.4485 30.2776 50.9697 32.6838 50.012 34.6949C49.0782 36.6821 47.7495 38.3461 46.0256 39.6868C44.3257 41.0037 42.3266 42.0571 40.0282 42.8472L36.6164 44.6428H19.6654L19.5936 36.2392H32.1991C34.0905 36.2392 35.6587 35.904 36.9037 35.2336C38.1487 34.5632 39.0824 33.6295 39.7049 32.4324C40.3514 31.2353 40.6746 29.8467 40.6746 28.2665C40.6746 26.5905 40.3633 25.142 39.7408 23.921C39.1184 22.6999 38.1726 21.7662 36.9037 21.1198C35.6348 20.4733 34.0426 20.1501 32.1273 20.1501H23.4004V64H12.6265V11.7105ZM41.8597 64L29.9366 40.6924L41.321 40.6206L53.3878 63.4972V64H41.8597Z" fill="#FF0099"/>
<path d="M76.9827 64.7183C73.966 64.7183 71.2606 64.2394 68.8664 63.2817C66.4722 62.3001 64.4371 60.9474 62.7611 59.2236C61.1091 57.4997 59.8402 55.5006 58.9543 53.2261C58.0685 50.9276 57.6256 48.4855 57.6256 45.8998V44.4633C57.6256 41.5184 58.0445 38.8249 58.8825 36.3828C59.7205 33.9407 60.9176 31.8219 62.4738 30.0262C64.054 28.2306 65.9694 26.8539 68.2199 25.8962C70.4705 24.9146 73.0083 24.4238 75.8335 24.4238C78.5868 24.4238 81.0289 24.8787 83.1598 25.7885C85.2906 26.6983 87.0743 27.9911 88.5108 29.6671C89.9713 31.343 91.0726 33.3542 91.8148 35.7005C92.557 38.0229 92.9281 40.6086 92.9281 43.4577V47.7673H62.0429V40.872H82.7647V40.0819C82.7647 38.6454 82.5014 37.3645 81.9746 36.2392C81.4718 35.09 80.7057 34.1802 79.6762 33.5098C78.6467 32.8394 77.3299 32.5042 75.7258 32.5042C74.3611 32.5042 73.1879 32.8035 72.2063 33.4021C71.2246 34.0006 70.4226 34.8386 69.8001 35.916C69.2015 36.9934 68.7466 38.2623 68.4354 39.7228C68.1481 41.1593 68.0044 42.7395 68.0044 44.4633V45.8998C68.0044 47.456 68.2199 48.8926 68.6509 50.2094C69.1058 51.5262 69.7402 52.6634 70.5543 53.6211C71.3922 54.5788 72.3978 55.321 73.571 55.8477C74.7681 56.3745 76.1208 56.6378 77.6292 56.6378C79.4966 56.6378 81.2324 56.2787 82.8365 55.5604C84.4646 54.8182 85.8652 53.7049 87.0384 52.2205L92.0662 57.6793C91.2522 58.8525 90.1389 59.9777 88.7263 61.0551C87.3377 62.1325 85.6617 63.0184 83.6985 63.7127C81.7352 64.3831 79.4966 64.7183 76.9827 64.7183Z" fill="#FF0099"/>
<path d="M121.766 55.5245V8.8375H132.181V64H122.808L121.766 55.5245ZM97.2018 45.0379V44.2837C97.2018 41.3149 97.537 38.6214 98.2074 36.2033C98.8777 33.7612 99.8594 31.6663 101.152 29.9185C102.445 28.1707 104.037 26.818 105.929 25.8603C107.82 24.9026 109.975 24.4238 112.393 24.4238C114.668 24.4238 116.655 24.9026 118.355 25.8603C120.078 26.818 121.539 28.1827 122.736 29.9544C123.957 31.7022 124.939 33.7732 125.681 36.1674C126.423 38.5376 126.962 41.1353 127.297 43.9605V45.6125C126.962 48.318 126.423 50.8319 125.681 53.1542C124.939 55.4766 123.957 57.5117 122.736 59.2595C121.539 60.9833 120.078 62.3241 118.355 63.2817C116.631 64.2394 114.62 64.7183 112.321 64.7183C109.903 64.7183 107.748 64.2275 105.857 63.2458C103.989 62.2642 102.409 60.8875 101.116 59.1158C99.8474 57.3441 98.8777 55.2611 98.2074 52.8669C97.537 50.4727 97.2018 47.8631 97.2018 45.0379ZM107.545 44.2837V45.0379C107.545 46.642 107.664 48.1384 107.904 49.527C108.167 50.9157 108.586 52.1487 109.161 53.2261C109.759 54.2795 110.526 55.1055 111.459 55.7041C112.417 56.2787 113.578 56.566 114.943 56.566C116.715 56.566 118.175 56.1709 119.324 55.3809C120.473 54.5668 121.347 53.4535 121.946 52.0409C122.568 50.6284 122.928 49.0003 123.023 47.1568V42.4521C122.951 40.9438 122.736 39.5911 122.377 38.394C122.042 37.1729 121.539 36.1314 120.869 35.2695C120.222 34.4076 119.408 33.7372 118.426 33.2584C117.469 32.7796 116.331 32.5401 115.015 32.5401C113.674 32.5401 112.525 32.8514 111.567 33.4739C110.609 34.0724 109.831 34.8984 109.233 35.9519C108.658 37.0053 108.227 38.2503 107.94 39.6868C107.676 41.0994 107.545 42.6317 107.545 44.2837Z" fill="#FF0099"/>
<path d="M161.235 55.2372V37.9271C161.235 36.6821 161.031 35.6167 160.624 34.7308C160.217 33.821 159.583 33.1147 158.721 32.612C157.883 32.1092 156.794 31.8578 155.453 31.8578C154.304 31.8578 153.31 32.0613 152.472 32.4683C151.634 32.8514 150.988 33.414 150.533 34.1562C150.078 34.8745 149.85 35.7244 149.85 36.7061H139.507C139.507 35.0541 139.89 33.4858 140.657 32.0014C141.423 30.517 142.536 29.2122 143.997 28.0869C145.457 26.9377 147.193 26.0399 149.204 25.3934C151.239 24.747 153.514 24.4238 156.027 24.4238C159.044 24.4238 161.726 24.9266 164.072 25.9321C166.418 26.9377 168.262 28.446 169.603 30.4572C170.967 32.4683 171.65 34.9822 171.65 37.9989V54.6267C171.65 56.7575 171.781 58.5053 172.045 59.87C172.308 61.2108 172.691 62.3839 173.194 63.3895V64H162.743C162.24 62.9465 161.857 61.6297 161.594 60.0496C161.355 58.4454 161.235 56.8413 161.235 55.2372ZM162.6 40.3333L162.671 46.1871H156.889C155.525 46.1871 154.34 46.3427 153.334 46.654C152.328 46.9652 151.502 47.4082 150.856 47.9828C150.21 48.5334 149.731 49.1799 149.419 49.9221C149.132 50.6643 148.988 51.4783 148.988 52.3642C148.988 53.25 149.192 54.0521 149.599 54.7703C150.006 55.4647 150.593 56.0153 151.359 56.4223C152.125 56.8054 153.023 56.9969 154.052 56.9969C155.608 56.9969 156.961 56.6857 158.11 56.0632C159.26 55.4407 160.145 54.6746 160.768 53.7648C161.414 52.855 161.75 51.9931 161.774 51.179L164.503 55.5604C164.12 56.542 163.593 57.5596 162.923 58.613C162.276 59.6665 161.45 60.6601 160.445 61.5938C159.439 62.5036 158.23 63.2578 156.818 63.8563C155.405 64.431 153.729 64.7183 151.79 64.7183C149.324 64.7183 147.085 64.2275 145.074 63.2458C143.087 62.2403 141.507 60.8636 140.333 59.1158C139.184 57.3441 138.61 55.333 138.61 53.0824C138.61 51.0473 138.993 49.2397 139.759 47.6595C140.525 46.0794 141.65 44.7506 143.135 43.6732C144.643 42.5719 146.522 41.7459 148.773 41.1952C151.024 40.6206 153.633 40.3333 156.602 40.3333H162.6Z" fill="#FF0099"/>
<path d="M195.675 56.6378C196.944 56.6378 198.07 56.3984 199.051 55.9196C200.033 55.4168 200.799 54.7225 201.35 53.8366C201.924 52.9268 202.224 51.8614 202.248 50.6403H211.98C211.956 53.3697 211.226 55.7998 209.789 57.9307C208.353 60.0376 206.425 61.7016 204.007 62.9226C201.589 64.1197 198.884 64.7183 195.891 64.7183C192.874 64.7183 190.241 64.2155 187.99 63.2099C185.763 62.2043 183.908 60.8157 182.424 59.044C180.939 57.2483 179.826 55.1654 179.084 52.7951C178.341 50.4009 177.97 47.8391 177.97 45.1097V44.0682C177.97 41.3149 178.341 38.7531 179.084 36.3828C179.826 33.9886 180.939 31.9057 182.424 30.134C183.908 28.3383 185.763 26.9377 187.99 25.9321C190.217 24.9266 192.826 24.4238 195.819 24.4238C199.003 24.4238 201.793 25.0343 204.187 26.2553C206.605 27.4764 208.496 29.2242 209.861 31.4987C211.25 33.7492 211.956 36.4187 211.98 39.5073H202.248C202.224 38.2144 201.948 37.0412 201.422 35.9878C200.919 34.9343 200.177 34.0964 199.195 33.4739C198.237 32.8274 197.052 32.5042 195.64 32.5042C194.131 32.5042 192.898 32.8274 191.941 33.4739C190.983 34.0964 190.241 34.9583 189.714 36.0596C189.187 37.137 188.816 38.37 188.601 39.7587C188.409 41.1234 188.313 42.5599 188.313 44.0682V45.1097C188.313 46.6181 188.409 48.0666 188.601 49.4552C188.792 50.8438 189.151 52.0769 189.678 53.1542C190.229 54.2316 190.983 55.0816 191.941 55.7041C192.898 56.3266 194.143 56.6378 195.675 56.6378Z" fill="#FF0099"/>
<path d="M237.011 25.142V32.4683H214.386V25.142H237.011ZM219.989 15.5532H230.332V52.2923C230.332 53.4176 230.475 54.2795 230.763 54.8781C231.074 55.4766 231.529 55.8956 232.127 56.135C232.726 56.3505 233.48 56.4583 234.39 56.4583C235.036 56.4583 235.611 56.4343 236.114 56.3864C236.64 56.3146 237.083 56.2428 237.442 56.1709L237.478 63.7845C236.592 64.0718 235.635 64.2993 234.605 64.4669C233.576 64.6345 232.438 64.7183 231.194 64.7183C228.919 64.7183 226.932 64.3472 225.232 63.605C223.556 62.8388 222.263 61.6178 221.353 59.9418C220.444 58.2659 219.989 56.0632 219.989 53.3338V15.5532Z" fill="#FF0099"/>
<path d="M260.786 64.7183C257.769 64.7183 255.064 64.2394 252.67 63.2817C250.275 62.3001 248.24 60.9474 246.564 59.2236C244.912 57.4997 243.643 55.5006 242.758 53.2261C241.872 50.9276 241.429 48.4855 241.429 45.8998V44.4633C241.429 41.5184 241.848 38.8249 242.686 36.3828C243.524 33.9407 244.721 31.8219 246.277 30.0262C247.857 28.2306 249.773 26.8539 252.023 25.8962C254.274 24.9146 256.812 24.4238 259.637 24.4238C262.39 24.4238 264.832 24.8787 266.963 25.7885C269.094 26.6983 270.877 27.9911 272.314 29.6671C273.774 31.343 274.876 33.3542 275.618 35.7005C276.36 38.0229 276.731 40.6086 276.731 43.4577V47.7673H245.846V40.872H266.568V40.0819C266.568 38.6454 266.305 37.3645 265.778 36.2392C265.275 35.09 264.509 34.1802 263.479 33.5098C262.45 32.8394 261.133 32.5042 259.529 32.5042C258.164 32.5042 256.991 32.8035 256.009 33.4021C255.028 34.0006 254.226 34.8386 253.603 35.916C253.005 36.9934 252.55 38.2623 252.239 39.7228C251.951 41.1593 251.808 42.7395 251.808 44.4633V45.8998C251.808 47.456 252.023 48.8926 252.454 50.2094C252.909 51.5262 253.543 52.6634 254.357 53.6211C255.195 54.5788 256.201 55.321 257.374 55.8477C258.571 56.3745 259.924 56.6378 261.432 56.6378C263.3 56.6378 265.036 56.2787 266.64 55.5604C268.268 54.8182 269.668 53.7049 270.842 52.2205L275.869 57.6793C275.055 58.8525 273.942 59.9777 272.529 61.0551C271.141 62.1325 269.465 63.0184 267.502 63.7127C265.538 64.3831 263.3 64.7183 260.786 64.7183Z" fill="#FF0099"/>
<path d="M305.57 55.5245V8.8375H315.984V64H306.611L305.57 55.5245ZM281.005 45.0379V44.2837C281.005 41.3149 281.34 38.6214 282.011 36.2033C282.681 33.7612 283.663 31.6663 284.955 29.9185C286.248 28.1707 287.84 26.818 289.732 25.8603C291.623 24.9026 293.778 24.4238 296.196 24.4238C298.471 24.4238 300.458 24.9026 302.158 25.8603C303.882 26.818 305.342 28.1827 306.539 29.9544C307.76 31.7022 308.742 33.7732 309.484 36.1674C310.226 38.5376 310.765 41.1353 311.1 43.9605V45.6125C310.765 48.318 310.226 50.8319 309.484 53.1542C308.742 55.4766 307.76 57.5117 306.539 59.2595C305.342 60.9833 303.882 62.3241 302.158 63.2817C300.434 64.2394 298.423 64.7183 296.124 64.7183C293.706 64.7183 291.551 64.2275 289.66 63.2458C287.793 62.2642 286.212 60.8875 284.919 59.1158C283.651 57.3441 282.681 55.2611 282.011 52.8669C281.34 50.4727 281.005 47.8631 281.005 45.0379ZM291.348 44.2837V45.0379C291.348 46.642 291.468 48.1384 291.707 49.527C291.97 50.9157 292.389 52.1487 292.964 53.2261C293.563 54.2795 294.329 55.1055 295.262 55.7041C296.22 56.2787 297.381 56.566 298.746 56.566C300.518 56.566 301.978 56.1709 303.127 55.3809C304.277 54.5668 305.151 53.4535 305.749 52.0409C306.372 50.6284 306.731 49.0003 306.826 47.1568V42.4521C306.755 40.9438 306.539 39.5911 306.18 38.394C305.845 37.1729 305.342 36.1314 304.672 35.2695C304.025 34.4076 303.211 33.7372 302.23 33.2584C301.272 32.7796 300.135 32.5401 298.818 32.5401C297.477 32.5401 296.328 32.8514 295.37 33.4739C294.413 34.0724 293.634 34.8984 293.036 35.9519C292.461 37.0053 292.03 38.2503 291.743 39.6868C291.48 41.0994 291.348 42.6317 291.348 44.2837Z" fill="#FF0099"/>
<path d="M12.6265 11.7105H32.1273C36.1256 11.7105 39.5613 12.3091 42.4343 13.5062C45.3313 14.7033 47.5579 16.475 49.1142 18.8213C50.6704 21.1677 51.4485 24.0527 51.4485 27.4764C51.4485 30.2776 50.9697 32.6838 50.012 34.6949C49.0782 36.6821 47.7495 38.3461 46.0256 39.6868C44.3257 41.0037 42.3266 42.0571 40.0282 42.8472L36.6164 44.6428H19.6654L19.5936 36.2392H32.1991C34.0905 36.2392 35.6587 35.904 36.9037 35.2336C38.1487 34.5632 39.0824 33.6295 39.7049 32.4324C40.3514 31.2353 40.6746 29.8467 40.6746 28.2665C40.6746 26.5905 40.3633 25.142 39.7408 23.921C39.1184 22.6999 38.1726 21.7662 36.9037 21.1198C35.6348 20.4733 34.0426 20.1501 32.1273 20.1501H23.4004V64H12.6265V11.7105ZM41.8597 64L29.9366 40.6924L41.321 40.6206L53.3878 63.4972V64H41.8597Z" stroke="white" stroke-width="16.3444" stroke-linejoin="round" mask="url(#path-1-outside-1_324_3)"/>
<path d="M76.9827 64.7183C73.966 64.7183 71.2606 64.2394 68.8664 63.2817C66.4722 62.3001 64.4371 60.9474 62.7611 59.2236C61.1091 57.4997 59.8402 55.5006 58.9543 53.2261C58.0685 50.9276 57.6256 48.4855 57.6256 45.8998V44.4633C57.6256 41.5184 58.0445 38.8249 58.8825 36.3828C59.7205 33.9407 60.9176 31.8219 62.4738 30.0262C64.054 28.2306 65.9694 26.8539 68.2199 25.8962C70.4705 24.9146 73.0083 24.4238 75.8335 24.4238C78.5868 24.4238 81.0289 24.8787 83.1598 25.7885C85.2906 26.6983 87.0743 27.9911 88.5108 29.6671C89.9713 31.343 91.0726 33.3542 91.8148 35.7005C92.557 38.0229 92.9281 40.6086 92.9281 43.4577V47.7673H62.0429V40.872H82.7647V40.0819C82.7647 38.6454 82.5014 37.3645 81.9746 36.2392C81.4718 35.09 80.7057 34.1802 79.6762 33.5098C78.6467 32.8394 77.3299 32.5042 75.7258 32.5042C74.3611 32.5042 73.1879 32.8035 72.2063 33.4021C71.2246 34.0006 70.4226 34.8386 69.8001 35.916C69.2015 36.9934 68.7466 38.2623 68.4354 39.7228C68.1481 41.1593 68.0044 42.7395 68.0044 44.4633V45.8998C68.0044 47.456 68.2199 48.8926 68.6509 50.2094C69.1058 51.5262 69.7402 52.6634 70.5543 53.6211C71.3922 54.5788 72.3978 55.321 73.571 55.8477C74.7681 56.3745 76.1208 56.6378 77.6292 56.6378C79.4966 56.6378 81.2324 56.2787 82.8365 55.5604C84.4646 54.8182 85.8652 53.7049 87.0384 52.2205L92.0662 57.6793C91.2522 58.8525 90.1389 59.9777 88.7263 61.0551C87.3377 62.1325 85.6617 63.0184 83.6985 63.7127C81.7352 64.3831 79.4966 64.7183 76.9827 64.7183Z" stroke="white" stroke-width="16.3444" stroke-linejoin="round" mask="url(#path-1-outside-1_324_3)"/>
<path d="M121.766 55.5245V8.8375H132.181V64H122.808L121.766 55.5245ZM97.2018 45.0379V44.2837C97.2018 41.3149 97.537 38.6214 98.2074 36.2033C98.8777 33.7612 99.8594 31.6663 101.152 29.9185C102.445 28.1707 104.037 26.818 105.929 25.8603C107.82 24.9026 109.975 24.4238 112.393 24.4238C114.668 24.4238 116.655 24.9026 118.355 25.8603C120.078 26.818 121.539 28.1827 122.736 29.9544C123.957 31.7022 124.939 33.7732 125.681 36.1674C126.423 38.5376 126.962 41.1353 127.297 43.9605V45.6125C126.962 48.318 126.423 50.8319 125.681 53.1542C124.939 55.4766 123.957 57.5117 122.736 59.2595C121.539 60.9833 120.078 62.3241 118.355 63.2817C116.631 64.2394 114.62 64.7183 112.321 64.7183C109.903 64.7183 107.748 64.2275 105.857 63.2458C103.989 62.2642 102.409 60.8875 101.116 59.1158C99.8474 57.3441 98.8777 55.2611 98.2074 52.8669C97.537 50.4727 97.2018 47.8631 97.2018 45.0379ZM107.545 44.2837V45.0379C107.545 46.642 107.664 48.1384 107.904 49.527C108.167 50.9157 108.586 52.1487 109.161 53.2261C109.759 54.2795 110.526 55.1055 111.459 55.7041C112.417 56.2787 113.578 56.566 114.943 56.566C116.715 56.566 118.175 56.1709 119.324 55.3809C120.473 54.5668 121.347 53.4535 121.946 52.0409C122.568 50.6284 122.928 49.0003 123.023 47.1568V42.4521C122.951 40.9438 122.736 39.5911 122.377 38.394C122.042 37.1729 121.539 36.1314 120.869 35.2695C120.222 34.4076 119.408 33.7372 118.426 33.2584C117.469 32.7796 116.331 32.5401 115.015 32.5401C113.674 32.5401 112.525 32.8514 111.567 33.4739C110.609 34.0724 109.831 34.8984 109.233 35.9519C108.658 37.0053 108.227 38.2503 107.94 39.6868C107.676 41.0994 107.545 42.6317 107.545 44.2837Z" stroke="white" stroke-width="16.3444" stroke-linejoin="round" mask="url(#path-1-outside-1_324_3)"/>
<path d="M161.235 55.2372V37.9271C161.235 36.6821 161.031 35.6167 160.624 34.7308C160.217 33.821 159.583 33.1147 158.721 32.612C157.883 32.1092 156.794 31.8578 155.453 31.8578C154.304 31.8578 153.31 32.0613 152.472 32.4683C151.634 32.8514 150.988 33.414 150.533 34.1562C150.078 34.8745 149.85 35.7244 149.85 36.7061H139.507C139.507 35.0541 139.89 33.4858 140.657 32.0014C141.423 30.517 142.536 29.2122 143.997 28.0869C145.457 26.9377 147.193 26.0399 149.204 25.3934C151.239 24.747 153.514 24.4238 156.027 24.4238C159.044 24.4238 161.726 24.9266 164.072 25.9321C166.418 26.9377 168.262 28.446 169.603 30.4572C170.967 32.4683 171.65 34.9822 171.65 37.9989V54.6267C171.65 56.7575 171.781 58.5053 172.045 59.87C172.308 61.2108 172.691 62.3839 173.194 63.3895V64H162.743C162.24 62.9465 161.857 61.6297 161.594 60.0496C161.355 58.4454 161.235 56.8413 161.235 55.2372ZM162.6 40.3333L162.671 46.1871H156.889C155.525 46.1871 154.34 46.3427 153.334 46.654C152.328 46.9652 151.502 47.4082 150.856 47.9828C150.21 48.5334 149.731 49.1799 149.419 49.9221C149.132 50.6643 148.988 51.4783 148.988 52.3642C148.988 53.25 149.192 54.0521 149.599 54.7703C150.006 55.4647 150.593 56.0153 151.359 56.4223C152.125 56.8054 153.023 56.9969 154.052 56.9969C155.608 56.9969 156.961 56.6857 158.11 56.0632C159.26 55.4407 160.145 54.6746 160.768 53.7648C161.414 52.855 161.75 51.9931 161.774 51.179L164.503 55.5604C164.12 56.542 163.593 57.5596 162.923 58.613C162.276 59.6665 161.45 60.6601 160.445 61.5938C159.439 62.5036 158.23 63.2578 156.818 63.8563C155.405 64.431 153.729 64.7183 151.79 64.7183C149.324 64.7183 147.085 64.2275 145.074 63.2458C143.087 62.2403 141.507 60.8636 140.333 59.1158C139.184 57.3441 138.61 55.333 138.61 53.0824C138.61 51.0473 138.993 49.2397 139.759 47.6595C140.525 46.0794 141.65 44.7506 143.135 43.6732C144.643 42.5719 146.522 41.7459 148.773 41.1952C151.024 40.6206 153.633 40.3333 156.602 40.3333H162.6Z" stroke="white" stroke-width="16.3444" stroke-linejoin="round" mask="url(#path-1-outside-1_324_3)"/>
<path d="M195.675 56.6378C196.944 56.6378 198.07 56.3984 199.051 55.9196C200.033 55.4168 200.799 54.7225 201.35 53.8366C201.924 52.9268 202.224 51.8614 202.248 50.6403H211.98C211.956 53.3697 211.226 55.7998 209.789 57.9307C208.353 60.0376 206.425 61.7016 204.007 62.9226C201.589 64.1197 198.884 64.7183 195.891 64.7183C192.874 64.7183 190.241 64.2155 187.99 63.2099C185.763 62.2043 183.908 60.8157 182.424 59.044C180.939 57.2483 179.826 55.1654 179.084 52.7951C178.341 50.4009 177.97 47.8391 177.97 45.1097V44.0682C177.97 41.3149 178.341 38.7531 179.084 36.3828C179.826 33.9886 180.939 31.9057 182.424 30.134C183.908 28.3383 185.763 26.9377 187.99 25.9321C190.217 24.9266 192.826 24.4238 195.819 24.4238C199.003 24.4238 201.793 25.0343 204.187 26.2553C206.605 27.4764 208.496 29.2242 209.861 31.4987C211.25 33.7492 211.956 36.4187 211.98 39.5073H202.248C202.224 38.2144 201.948 37.0412 201.422 35.9878C200.919 34.9343 200.177 34.0964 199.195 33.4739C198.237 32.8274 197.052 32.5042 195.64 32.5042C194.131 32.5042 192.898 32.8274 191.941 33.4739C190.983 34.0964 190.241 34.9583 189.714 36.0596C189.187 37.137 188.816 38.37 188.601 39.7587C188.409 41.1234 188.313 42.5599 188.313 44.0682V45.1097C188.313 46.6181 188.409 48.0666 188.601 49.4552C188.792 50.8438 189.151 52.0769 189.678 53.1542C190.229 54.2316 190.983 55.0816 191.941 55.7041C192.898 56.3266 194.143 56.6378 195.675 56.6378Z" stroke="white" stroke-width="16.3444" stroke-linejoin="round" mask="url(#path-1-outside-1_324_3)"/>
<path d="M237.011 25.142V32.4683H214.386V25.142H237.011ZM219.989 15.5532H230.332V52.2923C230.332 53.4176 230.475 54.2795 230.763 54.8781C231.074 55.4766 231.529 55.8956 232.127 56.135C232.726 56.3505 233.48 56.4583 234.39 56.4583C235.036 56.4583 235.611 56.4343 236.114 56.3864C236.64 56.3146 237.083 56.2428 237.442 56.1709L237.478 63.7845C236.592 64.0718 235.635 64.2993 234.605 64.4669C233.576 64.6345 232.438 64.7183 231.194 64.7183C228.919 64.7183 226.932 64.3472 225.232 63.605C223.556 62.8388 222.263 61.6178 221.353 59.9418C220.444 58.2659 219.989 56.0632 219.989 53.3338V15.5532Z" stroke="white" stroke-width="16.3444" stroke-linejoin="round" mask="url(#path-1-outside-1_324_3)"/>
<path d="M260.786 64.7183C257.769 64.7183 255.064 64.2394 252.67 63.2817C250.275 62.3001 248.24 60.9474 246.564 59.2236C244.912 57.4997 243.643 55.5006 242.758 53.2261C241.872 50.9276 241.429 48.4855 241.429 45.8998V44.4633C241.429 41.5184 241.848 38.8249 242.686 36.3828C243.524 33.9407 244.721 31.8219 246.277 30.0262C247.857 28.2306 249.773 26.8539 252.023 25.8962C254.274 24.9146 256.812 24.4238 259.637 24.4238C262.39 24.4238 264.832 24.8787 266.963 25.7885C269.094 26.6983 270.877 27.9911 272.314 29.6671C273.774 31.343 274.876 33.3542 275.618 35.7005C276.36 38.0229 276.731 40.6086 276.731 43.4577V47.7673H245.846V40.872H266.568V40.0819C266.568 38.6454 266.305 37.3645 265.778 36.2392C265.275 35.09 264.509 34.1802 263.479 33.5098C262.45 32.8394 261.133 32.5042 259.529 32.5042C258.164 32.5042 256.991 32.8035 256.009 33.4021C255.028 34.0006 254.226 34.8386 253.603 35.916C253.005 36.9934 252.55 38.2623 252.239 39.7228C251.951 41.1593 251.808 42.7395 251.808 44.4633V45.8998C251.808 47.456 252.023 48.8926 252.454 50.2094C252.909 51.5262 253.543 52.6634 254.357 53.6211C255.195 54.5788 256.201 55.321 257.374 55.8477C258.571 56.3745 259.924 56.6378 261.432 56.6378C263.3 56.6378 265.036 56.2787 266.64 55.5604C268.268 54.8182 269.668 53.7049 270.842 52.2205L275.869 57.6793C275.055 58.8525 273.942 59.9777 272.529 61.0551C271.141 62.1325 269.465 63.0184 267.502 63.7127C265.538 64.3831 263.3 64.7183 260.786 64.7183Z" stroke="white" stroke-width="16.3444" stroke-linejoin="round" mask="url(#path-1-outside-1_324_3)"/>
<path d="M305.57 55.5245V8.8375H315.984V64H306.611L305.57 55.5245ZM281.005 45.0379V44.2837C281.005 41.3149 281.34 38.6214 282.011 36.2033C282.681 33.7612 283.663 31.6663 284.955 29.9185C286.248 28.1707 287.84 26.818 289.732 25.8603C291.623 24.9026 293.778 24.4238 296.196 24.4238C298.471 24.4238 300.458 24.9026 302.158 25.8603C303.882 26.818 305.342 28.1827 306.539 29.9544C307.76 31.7022 308.742 33.7732 309.484 36.1674C310.226 38.5376 310.765 41.1353 311.1 43.9605V45.6125C310.765 48.318 310.226 50.8319 309.484 53.1542C308.742 55.4766 307.76 57.5117 306.539 59.2595C305.342 60.9833 303.882 62.3241 302.158 63.2817C300.434 64.2394 298.423 64.7183 296.124 64.7183C293.706 64.7183 291.551 64.2275 289.66 63.2458C287.793 62.2642 286.212 60.8875 284.919 59.1158C283.651 57.3441 282.681 55.2611 282.011 52.8669C281.34 50.4727 281.005 47.8631 281.005 45.0379ZM291.348 44.2837V45.0379C291.348 46.642 291.468 48.1384 291.707 49.527C291.97 50.9157 292.389 52.1487 292.964 53.2261C293.563 54.2795 294.329 55.1055 295.262 55.7041C296.22 56.2787 297.381 56.566 298.746 56.566C300.518 56.566 301.978 56.1709 303.127 55.3809C304.277 54.5668 305.151 53.4535 305.749 52.0409C306.372 50.6284 306.731 49.0003 306.826 47.1568V42.4521C306.755 40.9438 306.539 39.5911 306.18 38.394C305.845 37.1729 305.342 36.1314 304.672 35.2695C304.025 34.4076 303.211 33.7372 302.23 33.2584C301.272 32.7796 300.135 32.5401 298.818 32.5401C297.477 32.5401 296.328 32.8514 295.37 33.4739C294.413 34.0724 293.634 34.8984 293.036 35.9519C292.461 37.0053 292.03 38.2503 291.743 39.6868C291.48 41.0994 291.348 42.6317 291.348 44.2837Z" stroke="white" stroke-width="16.3444" stroke-linejoin="round" mask="url(#path-1-outside-1_324_3)"/>
</g>
<defs>
<filter id="filter0_d_324_3" x="0.36799" y="0.665276" width="327.875" height="80.3974" filterUnits="userSpaceOnUse" color-interpolation-filters="sRGB">
<feFlood flood-opacity="0" result="BackgroundImageFix"/>
<feColorMatrix in="SourceAlpha" type="matrix" values="0 0 0 0 0 0 0 0 0 0 0 0 0 0 0 0 0 0 127 0" result="hardAlpha"/>
<feOffset dy="4.08611"/>
<feGaussianBlur stdDeviation="2.04306"/>
<feComposite in2="hardAlpha" operator="out"/>
<feColorMatrix type="matrix" values="0 0 0 0 0 0 0 0 0 0 0 0 0 0 0 0 0 0 0.25 0"/>
<feBlend mode="normal" in2="BackgroundImageFix" result="effect1_dropShadow_324_3"/>
<feBlend mode="normal" in="SourceGraphic" in2="effect1_dropShadow_324_3" result="shape"/>
</filter>
</defs>
</svg>
